# xmcd
#
# Track frame offsets:
#	150
#	25375
#	44510
#	80873
#
# Disc length: 1433 seconds
#
# Revision: 1
# Processed by: cddbd v1.5.1PL0 Copyright (c) Steve Scherf et al.
# Submitted via: CDex 1.50Beta5
#
DISCID=31059704
DTITLE=Jungle Smile - 16歳
DYEAR=1900
DGENRE=Pop
TTITLE0=Untitled
TTITLE1=Untitled
TTITLE2=Untitled
TTITLE3=Untitled
EXTD=
EXTT0=
EXTT1=
EXTT2=
EXTT3=
PLAYORDER=
